<svg width="1600" height="1199.9999999999998" xmlns="http://www.w3.org/2000/svg">
 <!-- Created with Method Draw - http://github.com/duopixel/Method-Draw/ -->

 <g>
  <title>background</title>
  <rect fill="#fff" id="canvas_background" height="1202" width="1602" y="-1" x="-1"/>
  <g display="none" overflow="visible" y="0" x="0" height="100%" width="100%" id="canvasGrid">
   <rect fill="url(#gridpattern)" stroke-width="0" y="0" x="0" height="100%" width="100%"/>
  </g>
 </g>
 <g>
  <title>Layer 1</title>
  <text stroke="#000" transform="matrix(4.773317233139499,0,0,6.812010535790662,-130.74457339355814,-51.80552508918016) " font-style="normal" font-weight="bold" xml:space="preserve" text-anchor="start" font-family="Euphoria, sans-serif" font-size="24" id="svg_2" y="37.230395" x="87.615448" stroke-width="0" fill="#C97A86">Sugandh Gynae Centre</text>
  <g stroke="null" id="svg_40">
   <g stroke="null" transform="matrix(0.6082661558090178,0,0,0.536780840185096,-12.305766146098671,-3.3506727195910004) " id="svg_14">
    <g stroke="null" id="svg_12"/>
    <g stroke="null" id="svg_11"/>
    <g stroke="null" id="svg_10">
     <g stroke="null" id="svg_15">
      <g stroke="null" id="svg_16">
       <path stroke="null" id="svg_17" fill="#D43D21" d="m251.179701,185.97678c-0.39,0.058 -0.77,0.081 -1.153,0.12l0,66.619c8.89,1.581 18.783,0.154 25.84,-0.82l0,-65.451c-0.741,-0.095 -1.472,-0.24 -2.182,-0.46c-9.206,-2.845 -10.509,-1.786 -22.505,-0.008z"/>
       <path stroke="null" id="svg_18" fill="#D43D21" d="m263.110701,60.19178c-16.121,0 -29.189,13.068 -29.189,29.189c0,11.415 6.556,21.293 16.104,26.092l0,3.975c0.177,-0.007 0.354,-0.013 0.526,-0.021l24.007,0c0.421,0.021 0.859,0.034 1.307,0.041l0,-3.825c9.729,-4.734 16.435,-14.714 16.435,-26.261c0,-16.122 -13.068,-29.19 -29.19,-29.19z"/>
      </g>
      <path stroke="null" id="svg_19" fill="none" d="m285.936701,324.64278c6.499,-5.537 9.923,-11.332 9.923,-16.837c0,-5.238 1.412,-15.716 -19.993,-25.257l0,49.227c3.339,-1.914 6.817,-4.361 10.07,-7.133z"/>
      <path stroke="null" id="svg_20" fill="none" d="m226.782701,306.82278c0,5.776 3.14,12.595 9.892,17.82c5.283,4.089 8.446,5.347 13.352,8.426l0,-51.94c-24.857,9.746 -23.244,20.061 -23.244,25.694z"/>
      <path stroke="null" id="svg_21" fill="#D43D21" d="m250.025701,280.12778l0,53.94c10.144,6.057 18.985,2.208 23.113,0.17c0.893,-0.44 1.806,-0.936 2.727,-1.463l0,-51.227c-1.091,-0.486 -2.222,-0.971 -3.434,-1.451l-0.001,0.091c-7.174,-3.333 -11.525,-2.587 -20.475,-0.802c-0.664,0.247 -1.299,0.495 -1.93,0.742z"/>
      <path stroke="null" id="svg_22" fill="#D43D21" d="m250.025701,370.88778l0,55.987c-0.009,0.189 -0.028,0.377 -0.028,0.569c0,7.151 5.792,12.949 12.935,12.949s12.932,-5.797 12.934,-12.948l0,-54.288c-1.433,-1.116 -2.951,-2.203 -4.558,-3.251c-7.076,-3.891 -14.263,-3.786 -21.283,0.982z"/>
      <path stroke="null" id="svg_23" fill="#2B3237" d="m272.431701,281.18878l0.001,-0.091c1.212,0.48 2.343,0.965 3.434,1.451c21.405,9.541 19.993,20.019 19.993,25.257c0,5.505 -3.424,11.3 -9.923,16.837c-3.253,2.772 -6.73,5.219 -10.07,7.133c-0.921,0.527 -1.834,1.022 -2.727,1.463c-4.128,2.038 -12.97,5.887 -23.113,-0.17c-4.905,-3.079 -8.068,-4.337 -13.352,-8.426c-6.752,-5.226 -9.892,-12.044 -9.892,-17.82c0,-5.633 -1.613,-15.947 23.243,-25.694c0.631,-0.247 1.266,-0.495 1.931,-0.741c8.949,-1.786 13.301,-2.532 20.475,0.801zm-22.406,-29.473c-0.579,-0.103 -1.155,-0.215 -1.725,-0.345c-9.918,-2.257 -19.629,-4.251 -40.388,-10.003c-19.88,-5.268 -41.76,-13.786 -45.014,-18.13c0.253,-0.25 0.627,-0.517 1.254,-0.767c1.747,-1 4.875,-1.859 8.375,-2.626c7.376,-1.5 17.256,-2.25 27.259,-2.75c19.882,-0.609 21.394,0.391 23.757,0.25c2.362,-0.142 14.446,-0.291 14.826,-9.478c0.379,-9.187 -6.162,-9.857 -11.287,-10.89c-8.125,-1.109 -4.666,-0.765 -15.669,-0.623c-18.253,1.375 -74.146,-3.143 -81.147,26.241c0,0.859 -0.124,1.376 -0.25,2.142c2.374,25.601 55.516,36.761 93.9,44.356c-13.004,8.909 -20.006,20.537 -22.754,35.667c-1.376,16.005 11.377,31.259 41.013,48.232c-22.507,15.88 -37.264,30.884 -36.011,48.921c1.82,13.42 12.942,30.984 34.096,43.347c2.104,1.229 5.139,1.093 2.952,-2.569c-5.301,-8.879 -14.496,-25.626 -15.294,-36.183c-1.096,-7.654 2.627,-18.535 18.176,-31.46c1.303,-1.229 2.614,-2.268 3.931,-3.162c7.02,-4.768 14.206,-4.873 21.282,-0.981c1.606,1.048 3.125,2.135 4.558,3.251c14.065,10.958 19.847,24.778 18.825,32.353c-0.792,10.494 -9.759,27.178 -15.199,36.021c-1.82,2.959 0.055,4.459 2.943,2.687c20.94,-12.849 32.188,-29.858 34.01,-43.303c1.254,-18.037 -13.504,-33.041 -35.916,-48.921c29.541,-16.974 42.295,-32.228 40.918,-48.232c-2.748,-15.004 -9.75,-26.633 -22.754,-35.667c38.385,-7.596 91.526,-18.756 93.9,-44.356c-0.126,-0.766 -0.25,-1.282 -0.25,-2.142c-7.002,-29.384 -62.895,-24.866 -81.146,-26.241c-11.004,-0.142 -9.636,-0.209 -14.786,-0.188c-5.151,0.02 -11.809,2.73 -11.976,10.941c-0.166,8.21 9.308,10.326 14.631,10.237c3.111,-0.052 3.875,-0.859 23.758,-0.125c10.002,0.375 19.882,1.125 27.131,2.625c3.628,0.767 6.629,1.626 8.503,2.626c0.5,0.25 1,0.517 1.253,0.767c-3.254,4.344 -25.134,12.862 -45.014,18.13c-18.237,5.054 -33.373,8.459 -37.405,9.332c-0.46,0.062 -0.937,0.128 -1.426,0.195c-7.056,0.975 -16.95,2.402 -25.84,0.821z"/>
      <path stroke="null" id="svg_24" fill="#E0DCD3" d="m432.599701,150.97678c-48.088,-8.912 -86.096,-52.576 -96.771,-61.277c-12.128,-9.895 -20.507,-7.628 -32.634,14.113c-7.574,13.507 -19.405,15.781 -27.328,15.654c-0.447,-0.007 -0.886,-0.021 -1.307,-0.041l-24.007,0c-0.172,0.009 -0.35,0.015 -0.526,0.021c-7.908,0.286 -20.281,-1.677 -28.108,-15.635c-12.127,-21.741 -20.63,-24.008 -32.633,-14.113c-10.845,8.838 -49.933,53.278 -99.051,61.62c-13.646,2.317 -16.077,8.77 -7.286,15.014c6.886,4.89 16.921,8.541 30.814,6.015c0,0 16.882,17.506 44.263,5.252c0,0 14.254,12.863 37.011,1.109c0,0 16.755,12.863 34.761,1.767c0,0 8.794,6.789 20.229,5.621c0.384,-0.039 0.764,-0.063 1.153,-0.12c11.996,-1.777 13.299,-2.837 22.505,0.008c0.71,0.22 1.44,0.365 2.182,0.46c8.868,1.138 19.449,-5.969 19.449,-5.969c17.882,11.097 34.761,-1.767 34.761,-1.767c22.756,11.754 36.884,-1.109 36.884,-1.109c27.509,12.254 44.39,-5.252 44.39,-5.252c11.498,2.091 20.354,-0.05 26.968,-3.622c11.582,-6.255 10.436,-14.755 -5.719,-17.749z"/>
     </g>
    </g>
   </g>
   <g stroke="null" transform="matrix(0.6082661558090178,0,0,0.536780840185096,-12.305766146098671,-3.3506727195910004) " id="svg_25"/>
   <g stroke="null" transform="matrix(0.6082661558090178,0,0,0.536780840185096,-12.305766146098671,-3.3506727195910004) " id="svg_26"/>
   <g stroke="null" transform="matrix(0.6082661558090178,0,0,0.536780840185096,-12.305766146098671,-3.3506727195910004) " id="svg_27"/>
   <g stroke="null" transform="matrix(0.6082661558090178,0,0,0.536780840185096,-12.305766146098671,-3.3506727195910004) " id="svg_28"/>
   <g stroke="null" transform="matrix(0.6082661558090178,0,0,0.536780840185096,-12.305766146098671,-3.3506727195910004) " id="svg_29"/>
   <g stroke="null" transform="matrix(0.6082661558090178,0,0,0.536780840185096,-12.305766146098671,-3.3506727195910004) " id="svg_30"/>
   <g stroke="null" transform="matrix(0.6082661558090178,0,0,0.536780840185096,-12.305766146098671,-3.3506727195910004) " id="svg_31"/>
   <g stroke="null" transform="matrix(0.6082661558090178,0,0,0.536780840185096,-12.305766146098671,-3.3506727195910004) " id="svg_32"/>
   <g stroke="null" transform="matrix(0.6082661558090178,0,0,0.536780840185096,-12.305766146098671,-3.3506727195910004) " id="svg_33"/>
   <g stroke="null" transform="matrix(0.6082661558090178,0,0,0.536780840185096,-12.305766146098671,-3.3506727195910004) " id="svg_34"/>
   <g stroke="null" transform="matrix(0.6082661558090178,0,0,0.536780840185096,-12.305766146098671,-3.3506727195910004) " id="svg_35"/>
   <g stroke="null" transform="matrix(0.6082661558090178,0,0,0.536780840185096,-12.305766146098671,-3.3506727195910004) " id="svg_36"/>
   <g stroke="null" transform="matrix(0.6082661558090178,0,0,0.536780840185096,-12.305766146098671,-3.3506727195910004) " id="svg_37"/>
   <g stroke="null" transform="matrix(0.6082661558090178,0,0,0.536780840185096,-12.305766146098671,-3.3506727195910004) " id="svg_38"/>
   <g stroke="null" transform="matrix(0.6082661558090178,0,0,0.536780840185096,-12.305766146098671,-3.3506727195910004) " id="svg_39"/>
  </g>
 </g>
</svg>